<svg xmlns="http://www.w3.org/2000/svg" viewBox="0 0 32 32">
  <rect x="0" y="0" width="32" height="32" rx="4" ry="4" fill="#FFF1F2"/>
  <rect x="0.5" y="0.5" width="31" height="31" rx="3.5" fill="none" stroke="#E46589" stroke-width="0.9"/>
  <g stroke="#E46589" stroke-linecap="round">
    <line x1="16" y1="9.8"  x2="16" y2="4.3" stroke-width="0.48"/>
    <line x1="16" y1="9.8"  x2="18.6" y2="4.6" stroke-width="0.35"/>
    <line x1="16" y1="9.8"  x2="13.4" y2="4.6" stroke-width="0.35"/>
    <line x1="16" y1="9.8"  x2="21.0" y2="5.5" stroke-width="0.32"/>
    <line x1="16" y1="9.8"  x2="11.0" y2="5.5" stroke-width="0.32"/>
    <line x1="16" y1="9.8"  x2="23.1" y2="7.0" stroke-width="0.29"/>
    <line x1="16" y1="9.8"  x2="8.9"  y2="7.0" stroke-width="0.29"/>
    <line x1="16" y1="9.8"  x2="24.8" y2="8.8" stroke-width="0.26"/>
    <line x1="16" y1="9.8"  x2="7.2"  y2="8.8" stroke-width="0.26"/>
  </g>
  <path d="M6.7,13.3 Q16,10.0 25.3,13.3 Q16,16.6 6.7,13.3Z"
        fill="#FFF1F2" stroke="#E46589" stroke-width="0.7"/>
  <circle cx="16" cy="14.8" r="3.8" fill="#FFF1F2" stroke="#E46589" stroke-width="0.62"/>
  <path d="M16,17.5 C16,17.5 13.3,15.8 12.8,14.8 C12.4,13.9 12.8,13.3 13.6,13.3 C14.3,13.3 15.2,13.9 16,14.6 C16.8,13.9 17.7,13.3 18.4,13.3 C19.2,13.3 19.6,13.9 19.2,14.8 C18.7,15.8 16,17.5 16,17.5Z" fill="#E46589"/>
</svg>
