<svg xmlns="http://www.w3.org/2000/svg" viewBox="0 0 240 280">
  <circle cx="120" cy="88" r="76" fill="#e0185e"/>
  <line x1="120" y1="14" x2="120" y2="34" stroke="white" stroke-width="5" stroke-linecap="round"/>
  <line x1="120" y1="34" x2="150" y2="19" stroke="white" stroke-width="3.7" stroke-linecap="round"/>
  <line x1="120" y1="34" x2="90"  y2="19" stroke="white" stroke-width="3.7" stroke-linecap="round"/>
  <line x1="120" y1="34" x2="176" y2="30" stroke="white" stroke-width="3.2" stroke-linecap="round"/>
  <line x1="120" y1="34" x2="64"  y2="30" stroke="white" stroke-width="3.2" stroke-linecap="round"/>
  <line x1="120" y1="34" x2="196" y2="47" stroke="white" stroke-width="2.8" stroke-linecap="round"/>
  <line x1="120" y1="34" x2="44"  y2="47" stroke="white" stroke-width="2.8" stroke-linecap="round"/>
  <path d="M46,88 Q120,58 194,88 Q120,118 46,88Z" fill="white"/>
  <circle cx="120" cy="88" r="21.5" fill="#e0185e"/>
  <circle cx="120" cy="88" r="15.4" fill="none" stroke="white" stroke-width="3.3"/>
  <path d="M120,92.6 C120,92.6 111.6,84.2 111.6,79.8 C111.6,76.1 114.9,75.2 120,80.5 C125.1,75.2 128.4,76.1 128.4,79.8 C128.4,84.2 120,92.6 120,92.6Z" fill="white"/>
  <!-- Text -->
  <text x="120" y="198" font-family="Georgia,'Times New Roman',serif" font-size="30" font-style="italic" fill="#e0185e" letter-spacing="0.5" text-anchor="middle">Beleza Rara</text>
  <line x1="38" y1="211" x2="202" y2="211" stroke="#e0185e" stroke-width="0.7" opacity="0.32"/>
  <text x="120" y="234" font-family="Georgia,'Times New Roman',serif" font-size="14" font-style="italic" fill="#aaa" letter-spacing="2" text-anchor="middle">Valquiria Almeida</text>
</svg>
